<mxfile host="app.diagrams.net" agent="Mozilla/5.0 (Macintosh; Intel Mac OS X 10_15_7) AppleWebKit/537.36 (KHTML, like Gecko) Chrome/140.0.0.0 Safari/537.36" version="28.2.4" pages="2">
  <diagram name="Trading Data Flow" id="trading-flow">
    <mxGraphModel dx="1018" dy="610" grid="1" gridSize="10" guides="1" tooltips="1" connect="1" arrows="1" fold="1" page="1" pageScale="1" pageWidth="1169" pageHeight="827" math="0" shadow="0">
      <root>
        <mxCell id="0" />
        <mxCell id="1" parent="0" />
        <mxCell id="user" value="Trading User" style="shape=umlActor;verticalLabelPosition=bottom;verticalAlign=top;html=1;fillColor=#e1d5e7;strokeColor=#9673a6;" parent="1" vertex="1">
          <mxGeometry x="50" y="200" width="30" height="60" as="geometry" />
        </mxCell>
        <mxCell id="cloudfront" value="CloudFront&#xa;CDN" style="rounded=1;whiteSpace=wrap;html=1;fillColor=#fff2cc;strokeColor=#d6b656;" parent="1" vertex="1">
          <mxGeometry x="120" y="210" width="80" height="40" as="geometry" />
        </mxCell>
        <mxCell id="alb" value="Application&#xa;Load Balancer" style="rounded=1;whiteSpace=wrap;html=1;fillColor=#f8cecc;strokeColor=#b85450;" parent="1" vertex="1">
          <mxGeometry x="240" y="210" width="100" height="40" as="geometry" />
        </mxCell>
        <mxCell id="api-gateway" value="API Gateway&#xa;Authentication" style="rounded=1;whiteSpace=wrap;html=1;fillColor=#dae8fc;strokeColor=#6c8ebf;" parent="1" vertex="1">
          <mxGeometry x="380" y="210" width="100" height="40" as="geometry" />
        </mxCell>
        <mxCell id="trading-service" value="Trading Service&#xa;Order Processing" style="rounded=1;whiteSpace=wrap;html=1;fillColor=#d5e8d4;strokeColor=#82b366;" parent="1" vertex="1">
          <mxGeometry x="520" y="210" width="100" height="40" as="geometry" />
        </mxCell>
        <mxCell id="market-data-service" value="Market Data&#xa;Service" style="rounded=1;whiteSpace=wrap;html=1;fillColor=#d5e8d4;strokeColor=#82b366;" parent="1" vertex="1">
          <mxGeometry x="520" y="120" width="100" height="40" as="geometry" />
        </mxCell>
        <mxCell id="kinesis" value="Kinesis&#xa;Data Streams" style="rounded=1;whiteSpace=wrap;html=1;fillColor=#ffe6cc;strokeColor=#d79b00;" parent="1" vertex="1">
          <mxGeometry x="380" y="120" width="100" height="40" as="geometry" />
        </mxCell>
        <mxCell id="market-data" value="External&#xa;Market Data" style="ellipse;whiteSpace=wrap;html=1;fillColor=#e1d5e7;strokeColor=#9673a6;" parent="1" vertex="1">
          <mxGeometry x="240" y="120" width="100" height="40" as="geometry" />
        </mxCell>
        <mxCell id="order-validation" value="Order&#xa;Validation" style="rounded=1;whiteSpace=wrap;html=1;fillColor=#d5e8d4;strokeColor=#82b366;" parent="1" vertex="1">
          <mxGeometry x="660" y="210" width="80" height="40" as="geometry" />
        </mxCell>
        <mxCell id="risk-engine" value="Risk Engine&#xa;Position Check" style="rounded=1;whiteSpace=wrap;html=1;fillColor=#f8cecc;strokeColor=#b85450;" parent="1" vertex="1">
          <mxGeometry x="520" y="300" width="100" height="40" as="geometry" />
        </mxCell>
        <mxCell id="order-queue" value="Order Queue&#xa;SQS" style="rounded=1;whiteSpace=wrap;html=1;fillColor=#ffe6cc;strokeColor=#d79b00;" parent="1" vertex="1">
          <mxGeometry x="660" y="300" width="80" height="40" as="geometry" />
        </mxCell>
        <mxCell id="execution-engine" value="Execution&#xa;Engine" style="rounded=1;whiteSpace=wrap;html=1;fillColor=#d5e8d4;strokeColor=#82b366;" parent="1" vertex="1">
          <mxGeometry x="780" y="300" width="80" height="40" as="geometry" />
        </mxCell>
        <mxCell id="database" value="RDS Aurora&#xa;Trade Database" style="shape=cylinder3;whiteSpace=wrap;html=1;boundedLbl=1;backgroundOutline=1;size=15;fillColor=#f0f0f0;strokeColor=#666666;" parent="1" vertex="1">
          <mxGeometry x="520" y="400" width="100" height="60" as="geometry" />
        </mxCell>
        <mxCell id="audit-log" value="Audit Log&#xa;CloudTrail" style="rounded=1;whiteSpace=wrap;html=1;fillColor=#fff2cc;strokeColor=#d6b656;" parent="1" vertex="1">
          <mxGeometry x="380" y="400" width="100" height="40" as="geometry" />
        </mxCell>
        <mxCell id="trade-confirmation" value="Trade&#xa;Confirmation" style="rounded=1;whiteSpace=wrap;html=1;fillColor=#d5e8d4;strokeColor=#82b366;" parent="1" vertex="1">
          <mxGeometry x="780" y="210" width="80" height="40" as="geometry" />
        </mxCell>
        <mxCell id="order-status" value="Order Status&#xa;Update" style="rounded=1;whiteSpace=wrap;html=1;fillColor=#dae8fc;strokeColor=#6c8ebf;" parent="1" vertex="1">
          <mxGeometry x="660" y="400" width="80" height="40" as="geometry" />
        </mxCell>
        <mxCell id="cross-cloud-sync" value="Cross-Cloud&#xa;Data Sync" style="rounded=1;whiteSpace=wrap;html=1;fillColor=#fff2cc;strokeColor=#d6b656;" parent="1" vertex="1">
          <mxGeometry x="380" y="500" width="100" height="40" as="geometry" />
        </mxCell>
        <mxCell id="azure-eventhubs" value="Azure&#xa;Event Hubs" style="rounded=1;whiteSpace=wrap;html=1;fillColor=#f8cecc;strokeColor=#b85450;" parent="1" vertex="1">
          <mxGeometry x="520" y="500" width="100" height="40" as="geometry" />
        </mxCell>
        <mxCell id="flow1" value="" style="endArrow=classic;html=1;rounded=0;" parent="1" source="user" target="cloudfront" edge="1">
          <mxGeometry width="50" height="50" relative="1" as="geometry">
            <mxPoint x="90" y="230" as="sourcePoint" />
            <mxPoint x="140" y="180" as="targetPoint" />
          </mxGeometry>
        </mxCell>
        <mxCell id="flow2" value="" style="endArrow=classic;html=1;rounded=0;" parent="1" source="cloudfront" target="alb" edge="1">
          <mxGeometry width="50" height="50" relative="1" as="geometry">
            <mxPoint x="200" y="230" as="sourcePoint" />
            <mxPoint x="250" y="180" as="targetPoint" />
          </mxGeometry>
        </mxCell>
        <mxCell id="flow3" value="" style="endArrow=classic;html=1;rounded=0;" parent="1" source="alb" target="api-gateway" edge="1">
          <mxGeometry width="50" height="50" relative="1" as="geometry">
            <mxPoint x="340" y="230" as="sourcePoint" />
            <mxPoint x="390" y="180" as="targetPoint" />
          </mxGeometry>
        </mxCell>
        <mxCell id="flow4" value="" style="endArrow=classic;html=1;rounded=0;" parent="1" source="api-gateway" target="trading-service" edge="1">
          <mxGeometry width="50" height="50" relative="1" as="geometry">
            <mxPoint x="480" y="230" as="sourcePoint" />
            <mxPoint x="530" y="180" as="targetPoint" />
          </mxGeometry>
        </mxCell>
        <mxCell id="flow5" value="" style="endArrow=classic;html=1;rounded=0;" parent="1" source="market-data" target="kinesis" edge="1">
          <mxGeometry width="50" height="50" relative="1" as="geometry">
            <mxPoint x="340" y="140" as="sourcePoint" />
            <mxPoint x="390" y="90" as="targetPoint" />
          </mxGeometry>
        </mxCell>
        <mxCell id="flow6" value="" style="endArrow=classic;html=1;rounded=0;" parent="1" source="kinesis" target="market-data-service" edge="1">
          <mxGeometry width="50" height="50" relative="1" as="geometry">
            <mxPoint x="480" y="140" as="sourcePoint" />
            <mxPoint x="530" y="90" as="targetPoint" />
          </mxGeometry>
        </mxCell>
        <mxCell id="flow7" value="" style="endArrow=classic;html=1;rounded=0;" parent="1" source="market-data-service" target="order-validation" edge="1">
          <mxGeometry width="50" height="50" relative="1" as="geometry">
            <mxPoint x="620" y="140" as="sourcePoint" />
            <mxPoint x="700" y="200" as="targetPoint" />
          </mxGeometry>
        </mxCell>
        <mxCell id="flow8" value="" style="endArrow=classic;html=1;rounded=0;" parent="1" source="trading-service" target="order-validation" edge="1">
          <mxGeometry width="50" height="50" relative="1" as="geometry">
            <mxPoint x="620" y="230" as="sourcePoint" />
            <mxPoint x="670" y="180" as="targetPoint" />
          </mxGeometry>
        </mxCell>
        <mxCell id="flow9" value="" style="endArrow=classic;html=1;rounded=0;" parent="1" source="order-validation" target="risk-engine" edge="1">
          <mxGeometry width="50" height="50" relative="1" as="geometry">
            <mxPoint x="700" y="250" as="sourcePoint" />
            <mxPoint x="580" y="300" as="targetPoint" />
          </mxGeometry>
        </mxCell>
        <mxCell id="flow10" value="" style="endArrow=classic;html=1;rounded=0;" parent="1" source="risk-engine" target="order-queue" edge="1">
          <mxGeometry width="50" height="50" relative="1" as="geometry">
            <mxPoint x="620" y="320" as="sourcePoint" />
            <mxPoint x="670" y="270" as="targetPoint" />
          </mxGeometry>
        </mxCell>
        <mxCell id="flow11" value="" style="endArrow=classic;html=1;rounded=0;" parent="1" source="order-queue" target="execution-engine" edge="1">
          <mxGeometry width="50" height="50" relative="1" as="geometry">
            <mxPoint x="740" y="320" as="sourcePoint" />
            <mxPoint x="790" y="270" as="targetPoint" />
          </mxGeometry>
        </mxCell>
        <mxCell id="flow12" value="" style="endArrow=classic;html=1;rounded=0;" parent="1" source="execution-engine" target="trade-confirmation" edge="1">
          <mxGeometry width="50" height="50" relative="1" as="geometry">
            <mxPoint x="820" y="280" as="sourcePoint" />
            <mxPoint x="820" y="250" as="targetPoint" />
          </mxGeometry>
        </mxCell>
        <mxCell id="flow13" value="" style="endArrow=classic;html=1;rounded=0;" parent="1" source="execution-engine" target="order-status" edge="1">
          <mxGeometry width="50" height="50" relative="1" as="geometry">
            <mxPoint x="780" y="340" as="sourcePoint" />
            <mxPoint x="720" y="400" as="targetPoint" />
          </mxGeometry>
        </mxCell>
        <mxCell id="flow14" value="" style="endArrow=classic;html=1;rounded=0;" parent="1" source="order-status" target="database" edge="1">
          <mxGeometry width="50" height="50" relative="1" as="geometry">
            <mxPoint x="660" y="420" as="sourcePoint" />
            <mxPoint x="620" y="430" as="targetPoint" />
          </mxGeometry>
        </mxCell>
        <mxCell id="flow15" value="" style="endArrow=classic;html=1;rounded=0;" parent="1" source="database" target="audit-log" edge="1">
          <mxGeometry width="50" height="50" relative="1" as="geometry">
            <mxPoint x="520" y="430" as="sourcePoint" />
            <mxPoint x="480" y="420" as="targetPoint" />
          </mxGeometry>
        </mxCell>
        <mxCell id="flow16" value="" style="endArrow=classic;html=1;rounded=0;" parent="1" source="audit-log" target="cross-cloud-sync" edge="1">
          <mxGeometry width="50" height="50" relative="1" as="geometry">
            <mxPoint x="430" y="440" as="sourcePoint" />
            <mxPoint x="430" y="500" as="targetPoint" />
          </mxGeometry>
        </mxCell>
        <mxCell id="flow17" value="" style="endArrow=classic;html=1;rounded=0;" parent="1" source="cross-cloud-sync" target="azure-eventhubs" edge="1">
          <mxGeometry width="50" height="50" relative="1" as="geometry">
            <mxPoint x="480" y="520" as="sourcePoint" />
            <mxPoint x="530" y="470" as="targetPoint" />
          </mxGeometry>
        </mxCell>
        <mxCell id="latency-label" value="&lt;100ms" style="text;html=1;strokeColor=none;fillColor=none;align=center;verticalAlign=middle;whiteSpace=wrap;rounded=0;fontColor=#d79b00;fontStyle=1;" parent="1" vertex="1">
          <mxGeometry x="700" y="180" width="60" height="30" as="geometry" />
        </mxCell>
        <mxCell id="throughput-label" value="50K TPS" style="text;html=1;strokeColor=none;fillColor=none;align=center;verticalAlign=middle;whiteSpace=wrap;rounded=0;fontColor=#d79b00;fontStyle=1;" parent="1" vertex="1">
          <mxGeometry x="780" y="270" width="60" height="30" as="geometry" />
        </mxCell>
      </root>
    </mxGraphModel>
  </diagram>
  <diagram id="c2npXtHVRca3eFVr1_-k" name="Page-2">
    <mxGraphModel dx="1018" dy="610" grid="1" gridSize="10" guides="1" tooltips="1" connect="1" arrows="1" fold="1" page="1" pageScale="1" pageWidth="850" pageHeight="1100" math="0" shadow="0">
      <root>
        <mxCell id="0" />
        <mxCell id="1" parent="0" />
      </root>
    </mxGraphModel>
  </diagram>
</mxfile>
